<svg version="1.1" id="Template_05" xmlns="http://www.w3.org/2000/svg" xmlns:xlink="http://www.w3.org/1999/xlink" x="0px"
	 y="0px" viewBox="0 0 1050 600" style="enable-background:new 0 0 1050 600;" xml:space="preserve"  height="100%" width="100%"
	 preserveAspectRatio="none">
<style type="text/css">
	.st0{fill:#F1881D;}
	.st1{fill:#312F30;}
	.st2{fill:#FFFFFF;}
	.st3{font-family:'Poppins-Medium';}
	.st4{font-size:26px;}
	.st5{fill:#1C1C1C;}
	.st6{font-family:'Poppins-SemiBold';}
	.st7{font-size:42px;}
	.st8{fill:#565759;}
	.st9{font-size:28px;}
	.st10{font-family:'Poppins-Bold';}
	.st11{font-size:48px;}
</style>
<polygon class="st0" points="610,550 0,550 0,470 560,470 "/>
<polygon class="st1" points="1050,550 626,550 576,470 1050,470 "/>
<g>
	<path class="st0" d="M48.3,177.9h53.3c4.6,0,8.3,3.7,8.3,8.3v53.3c0,4.6-3.7,8.3-8.3,8.3H48.3c-4.6,0-8.3-3.7-8.3-8.3v-53.3
		C40,181.6,43.7,177.9,48.3,177.9z"/>
	<path class="st0" d="M48.3,274.8h53.3c4.6,0,8.3,3.7,8.3,8.3v53.3c0,4.6-3.7,8.3-8.3,8.3H48.3c-4.6,0-8.3-3.7-8.3-8.3v-53.3
		C40,278.5,43.7,274.8,48.3,274.8z"/>
	<path class="st0" d="M48.3,371.7h53.3c4.6,0,8.3,3.7,8.3,8.3v53.3c0,4.6-3.7,8.3-8.3,8.3H48.3c-4.6,0-8.3-3.7-8.3-8.3V380
		C40,375.4,43.7,371.7,48.3,371.7z"/>
	<path class="st2" d="M74.2,391.1c-8.8,0-16,7.2-16,16s7.2,16,16,16s16-7.2,16-16S83.1,391.1,74.2,391.1z M85.3,400.7h-4.7
		c-0.5-2-1.2-3.9-2.2-5.7C81.3,396,83.8,398.1,85.3,400.7z M74.2,394.4c1.3,1.9,2.4,4,3.1,6.3h-6.1
		C71.9,398.4,72.9,396.3,74.2,394.4z M61.8,410.3c-0.3-1-0.4-2.1-0.4-3.2s0.2-2.2,0.4-3.2h5.4c-0.1,1.1-0.2,2.1-0.2,3.2
		s0.1,2.1,0.2,3.2H61.8z M63.2,413.5h4.7c0.5,2,1.2,3.9,2.2,5.7C67.1,418.2,64.7,416.2,63.2,413.5z M67.9,400.7h-4.7
		c1.5-2.7,4-4.7,6.9-5.7C69.1,396.8,68.4,398.7,67.9,400.7z M74.2,419.9c-1.3-1.9-2.4-4-3.1-6.3h6.1C76.6,415.8,75.6,418,74.2,419.9
		z M78,410.3h-7.5c-0.1-1.1-0.3-2.1-0.3-3.2s0.1-2.2,0.3-3.2H78c0.1,1,0.3,2.1,0.3,3.2C78.2,408.2,78.1,409.3,78,410.3z M78.4,419.2
		c1-1.8,1.7-3.7,2.2-5.7h4.7C83.8,416.2,81.3,418.2,78.4,419.2z M81.2,410.3c0.1-1.1,0.2-2.1,0.2-3.2s-0.1-2.1-0.2-3.2h5.4
		c0.3,1,0.4,2.1,0.4,3.2s-0.2,2.2-0.4,3.2H81.2z"/>
	<path class="st2" d="M85.4,297.9H61c-1.7,0-3,1.4-3,3v18.3c0,1.7,1.4,3,3,3h13.7v-3H61V304l12.2,7.6l12.2-7.6v7.6h3V301
		C88.5,299.3,87.1,297.9,85.4,297.9z M73.2,308.6L61,301h24.4L73.2,308.6z M83.9,314.7l6.1,6.1l-6.1,6.1v-4.6h-6.1v-3h6.1V314.7z"/>
	<path class="st2" d="M63,202c0.1,1.6,0.4,3.1,0.8,4.6l-2.1,2.1c-0.7-2.1-1.2-4.4-1.4-6.7L63,202 M80.5,223.3
		c1.5,0.4,3.1,0.7,4.6,0.8v2.6c-2.3-0.2-4.6-0.6-6.8-1.3L80.5,223.3 M64.7,198.4h-6.2c-1,0-1.8,0.8-1.8,1.8
		c0,16.7,13.5,30.2,30.2,30.2c1,0,1.8-0.8,1.8-1.8v-6.2c0-1-0.8-1.8-1.8-1.8c-2.2,0-4.4-0.4-6.3-1c-0.2-0.1-0.4-0.1-0.6-0.1
		c-0.5,0-0.9,0.2-1.3,0.5l-3.9,3.9c-5-2.6-9.2-6.7-11.7-11.7l3.9-3.9c0.5-0.5,0.6-1.2,0.4-1.8c-0.7-2-1-4.1-1-6.3
		C66.5,199.2,65.7,198.4,64.7,198.4z"/>
</g>
<text transform="matrix(1 0 0 1 129.7199 223.3403)" class="st1 st3 st4">9494339486</text>
<text transform="matrix(1 0 0 1 38.9999 90.7281)" class="st5 st6 st7">Chakri Reddy</text>
<text transform="matrix(1 0 0 1 41.0001 133.2064)" class="st8 st3 st9">Business</text>
<text transform="matrix(1 0 0 1 129.7197 319.7863)" class="st1 st3 st4">chakri.striker@gmail.com</text>
<text transform="matrix(1 0 0 1 129.7199 416.7035)" class="st1 st3 st4">www.chakrihardwares.com</text>
<g>
	
		<image style="overflow:visible;" width="96" height="96" xlink:href="https://0d67-49-205-242-38.ngrok-free.app/businesslogo/1696067687320-sample_v_logo.png"  transform="matrix(1.5625 0 0 1.5625 726.6 139.6)">
	</image>
	<text transform="matrix(1 0 0 1 710.8174 360.6921)" class="st1 st10 st11">Chakri Harwares</text>
</g>
</svg>
