<?xml version="1.0" encoding="utf-8"?>
<!-- Generator: Adobe Illustrator 27.5.0, SVG Export Plug-In . SVG Version: 6.00 Build 0)  -->
<svg version="1.1" id="PRINT" xmlns="http://www.w3.org/2000/svg" xmlns:xlink="http://www.w3.org/1999/xlink" x="0px" y="0px"
	 viewBox="0 0 291.334 168.123" style="enable-background:new 0 0 291.334 168.123;" xml:space="preserve">
<g>
	<rect x="-8.504" y="-8.504" style="fill:#FFFFFF;" width="308.341" height="185.131"/>
	<path style="fill:#00A6A9;" d="M258.738,94.418c-3.447,3.253-7.265,6.36-11.103,9.315c-3.85,2.971-7.825,5.79-11.864,8.513
		c-8.087,5.437-16.468,10.454-25.078,15.049c-17.229,9.185-35.342,16.712-53.934,22.758c-18.621,5.95-37.715,10.522-57.08,13.419
		c-19.355,2.951-38.936,4.478-58.537,4.643c19.601,0.118,39.221-1.126,58.66-3.802c19.448-2.623,38.671-6.93,57.468-12.639
		c18.768-5.804,37.103-13.111,54.606-22.121c8.748-4.508,17.28-9.448,25.538-14.829c4.126-2.695,8.191-5.491,12.143-8.451
		c3.966-2.969,7.812-5.993,11.544-9.414c0.692-0.634,0.738-1.709,0.104-2.401c-0.634-0.692-1.709-0.738-2.401-0.104
		c-0.004,0.003-0.008,0.007-0.011,0.01L258.738,94.418z"/>
	<text transform="matrix(1 0 0 1 162.8968 98.8467)" style="fill:#626161; font-family:'Lato-Regular'; font-size:5px;">www.LOREM IPSUM.com</text>
	<text transform="matrix(1 0 0 1 162.8968 111.0967)" style="fill:#626161; font-family:'Lato-Regular'; font-size:5px;">01 8000 00 00</text>
	<text transform="matrix(1 0 0 1 162.8968 86.5967)" style="fill:#626161; font-family:'Lato-Regular'; font-size:5px;">LOREMIPSUM@mail.com</text>
	<text transform="matrix(1 0 0 1 162.8968 75.2217)" style="fill:#626161; font-family:'Lato-Regular'; font-size:5px;">street, city, country</text>
	<text transform="matrix(1 0 0 1 154.0779 43.3208)"><tspan x="0" y="0" style="fill:#626161; font-family:'Lato-Regular'; font-size:10.0687px;">Your name </tspan><tspan x="61.66" y="0" style="fill:#626161; font-family:'Lato-Heavy'; font-size:10.0687px;">lastname</tspan></text>
	<text transform="matrix(1 0 0 1 160.5408 54.8618)" style="fill:#626161; font-family:'Lato-Light'; font-size:8.95px;">managing director</text>
	<g>
		<g>
			<text transform="matrix(1 0 0 1 24.5098 90.6185)"><tspan x="0" y="0" style="fill:#008691; font-family:'Lato-Black'; font-size:11.1495px;">YOUR</tspan><tspan x="31.976" y="0" style="fill:#00A6A9; font-family:'Lato-Bold'; font-size:11.1495px;"> </tspan><tspan x="34.128" y="0" style="fill:#00A6A9; font-family:'Lato-Regular'; font-size:11.1495px;">COMPANY</tspan></text>
			<text transform="matrix(1 0 0 1 36.9927 99.7532)" style="fill:#626161; font-family:'Lato-Light'; font-size:9.8335px;">LOREM IPSUM</text>
		</g>
		<g>
			<path style="fill:#AAABAF;" d="M81.637,65.707l4.867-4.866l-4.867-4.867v-6.883h-6.883l-4.867-4.867l-4.867,4.867h-6.883v6.883
				l-4.867,4.867l4.867,4.866v6.883h6.883l4.867,4.867l4.867-4.867h6.883V65.707z M84.477,60.84l-2.839,2.839v-5.678L84.477,60.84z
				 M80.204,65.113l-6.043,6.043h-8.546l-6.043-6.043v-8.546l6.043-6.042h8.546l6.043,6.042V65.113z M80.204,50.525v4.015
				l-4.015-4.015H80.204z M69.888,46.252l2.839,2.839h-5.679L69.888,46.252z M59.573,50.525h4.015l-4.015,4.015V50.525z M55.3,60.84
				l2.839-2.839v5.678L55.3,60.84z M59.573,71.156V67.14l4.015,4.015H59.573z M69.888,75.428l-2.839-2.839h5.679L69.888,75.428z
				 M76.188,71.156l4.015-4.015v4.015H76.188z"/>
			<polygon style="fill:#00A6A9;" points="72.727,49.091 81.637,58.001 81.637,49.091 			"/>
			<polygon style="fill:#008691;" points="57.147,64.672 66.057,73.581 66.057,64.672 			"/>
		</g>
	</g>
	<rect x="137.019" y="33.175" style="fill:#00A6A9;" width="0.799" height="80.261"/>
	<path style="fill:#008691;" d="M154.779,70.431c-1.618,0-2.93,1.312-2.93,2.93c0,1.618,2.93,4.66,2.93,4.66s2.93-3.042,2.93-4.66
		C157.71,71.743,156.398,70.431,154.779,70.431z M154.779,74.637c-0.705,0-1.277-0.572-1.277-1.277c0-0.705,0.572-1.277,1.277-1.277
		s1.277,0.572,1.277,1.277C156.056,74.066,155.485,74.637,154.779,74.637z"/>
	<g>
		<polygon style="fill:#008691;" points="154.771,85.072 158.915,82.063 158.915,81.994 150.627,81.994 150.627,82.063 		"/>
		<polygon style="fill:#008691;" points="154.771,86.058 150.627,83.049 150.627,88.011 158.915,88.011 158.915,83.049 		"/>
	</g>
	<path style="fill:#008691;" d="M154.771,93.848c-1.967,0-3.561,1.594-3.561,3.561c0,1.967,1.594,3.561,3.561,3.561
		c1.967,0,3.561-1.594,3.561-3.561C158.332,95.442,156.738,93.848,154.771,93.848z M156.991,96.056l0.031-0.115
		c0,0,0.167-0.126,0.22-0.136c0.025-0.005,0.071-0.007,0.112-0.009c0.091,0.145,0.171,0.297,0.237,0.457l-0.328-0.082l-0.105,0.01
		l-0.178-0.042L156.991,96.056z M151.723,97.409c0-0.03,0.004-0.06,0.005-0.089l0.104-0.028l0.157-0.073l0.251-0.021l0.282,0.212
		l0.178,0.154h0.136l0.136,0.115l0.178,0.235l0.167,0.215l0.157,0.073l0.01,0.251l0.021,0.303v0.241l0.063,0.241l0.241,0.167
		l0.105,0.105l0.063,0.115l0.031,0.23l-0.063,0.345l-0.023,0.134C152.653,99.966,151.723,98.797,151.723,97.409z M154.771,100.456
		c-0.054,0-0.107-0.005-0.16-0.008l0.391-0.939l-0.041-0.511l0.417-0.472l-0.607-0.614l-0.606-0.088l-0.398,0.088l-0.377-0.224
		l-0.094-0.073l-0.126-0.207l-0.063-0.107l0.073-0.23l0.22-0.052l0.115,0.105l0.199,0.157l0.052-0.115l-0.094-0.241l-0.094-0.241
		l0.01-0.188l0.126-0.429l0.126-0.209l0.126-0.439l-0.063-0.439l-0.01-0.251l-0.147-0.168h-0.051
		c0.335-0.126,0.696-0.199,1.075-0.199c0.208,0,0.411,0.021,0.607,0.061v0.379l0.242,0.073l0.146-0.094l0.057-0.228
		c0.154,0.057,0.302,0.124,0.443,0.203l-0.008,0.172l-0.011,0.115v0.188v0.073l-0.052,0.136c0,0-0.052,0.052-0.115,0.084
		c-0.063,0.031-0.094,0.052-0.094,0.052l-0.157,0.042l-0.199,0.042c0,0-0.063,0.031-0.136,0.059
		c-0.073,0.027-0.052,0.203-0.052,0.203s0,0.105,0,0.209c0,0.105,0.063,0.157,0.063,0.157l0.345-0.01l0.115-0.146l0.031-0.126
		l0.366-0.209l0.126,0.01l-0.021,0.241l0.146,0.199l-0.094,0.084c0,0,0,0-0.157,0.115c-0.157,0.115-0.126,0.105-0.126,0.105
		l-0.136,0.199l-0.021,0.188v0.262l0.262,0.157l0.251,0.011l0.115-0.011l0.408,0.146l0.042,0.178l0.251,0.439v0.209v0.45
		l0.034,0.097C156.925,99.817,155.923,100.456,154.771,100.456z"/>
	<path style="fill:#008691;" d="M156.879,111.458c-0.572-0.461-0.933-0.963-1.394-0.391c-0.079,0.099-0.141,0.205-0.188,0.316
		c-0.975-0.785-1.503-1.668-1.788-2.399c0.136-0.015,0.271-0.05,0.402-0.11c0.67-0.302,0.275-0.778-0.028-1.448
		c-0.302-0.67-0.398-1.281-1.068-0.978c-0.186,0.084-0.341,0.206-0.465,0.351c-0.294,0.069-0.514,0.329-0.518,0.644
		c-0.001,0.155,0.009,3.817,4.063,5.917c0.098,0.051,0.204,0.075,0.307,0.075c0.185,0,0.364-0.077,0.492-0.215
		c0.327-0.043,0.639-0.206,0.863-0.483C158.019,112.165,157.451,111.919,156.879,111.458z"/>
</g>
<path style="fill:#008691;" d="M299.842,68.317h-8.508c0,0-35.676,99.798-246.1,99.798v8.508h254.424v-8.501h0.185V68.317z"/>
</svg>
