<?xml version="1.0" encoding="utf-8"?>
<!-- Generator: Adobe Illustrator 27.5.0, SVG Export Plug-In . SVG Version: 6.00 Build 0)  -->
<svg version="1.1" xmlns="http://www.w3.org/2000/svg" xmlns:xlink="http://www.w3.org/1999/xlink" x="0px" y="0px"
         viewBox="0 0 252 144" style="enable-background:new 0 0 252 144;" xml:space="preserve">
<g id="Back">
</g>
<g id="Front">
        <g>
                <rect x="-9" y="-9" style="fill-rule:evenodd;clip-rule:evenodd;fill:#303642;" width="270" height="162"/>
                <g id="Shape_29">
                        <g>
                                <path style="fill:#FFFFFF;" d="M131.992,72c0,32.3,14.233,61.273,36.765,81H261V-9h-92.242
                                        C146.225,10.727,131.992,39.7,131.992,72z"/>
                        </g>
                </g>
                <g id="Shape_30">

                                <linearGradient id="SVGID_1_" gradientUnits="userSpaceOnUse" x1="76.8669" y1="72" x2="127.0278" y2="72" gradientTransform="matrix(-1 0 0 -1 252 144)">
                                <stop  offset="0" style="stop-color:#00A79D"/>
                                <stop  offset="1" style="stop-color:#303642"/>
                        </linearGradient>
                        <path style="fill-rule:evenodd;clip-rule:evenodd;fill:url(#SVGID_1_);" d="M155.983,153h19.151
                                c-22.485-19.727-36.689-48.7-36.689-81s14.203-61.273,36.689-81h-19.151c-19.276,21.459-31.01,49.855-31.01,81
                                S136.707,131.54,155.983,153z"/>
                </g>
                <g id="Shape_31">

                                <linearGradient id="SVGID_00000020365143120007644750000003071422005996600236_" gradientUnits="userSpaceOnUse" x1="77.4331" y1="63.1199" x2="142.62" y2="63.1199" gradientTransform="matrix(-1 0 0 -1 252 144)">
                                <stop  offset="0" style="stop-color:#303642"/>
                                <stop  offset="1" style="stop-color:#00A79D"/>
                        </linearGradient>
                        <path style="fill:url(#SVGID_00000020365143120007644750000003071422005996600236_);" d="M126.089,31.083
                                c1.052-7.703,2.747-15.157,5.013-22.323c-10.489,16.166-17.679,34.853-20.462,55.239c-4.397,32.208,2.928,63.314,18.677,89.001
                                h45.251C139.43,124.7,119.529,79.137,126.089,31.083z"/>
                </g>
                <g>
                        <g>
                                <g>
                                        <g>
                                                <path style="fill:#00A79D;" d="M26.219,122.65c0,4.477-3.63,8.104-8.107,8.104c-4.474,0-8.104-3.627-8.104-8.104
                                                        c0-4.477,3.63-8.104,8.104-8.104C22.589,114.546,26.219,118.173,26.219,122.65z"/>
                                                <path style="fill:#FFFFFF;" d="M18.113,117.817c-1.633,0-2.959,1.325-2.959,2.961c0,2.811,2.516,3.403,2.959,6.512
                                                        c0.445-3.109,2.961-3.701,2.961-6.512C21.073,119.142,19.745,117.817,18.113,117.817z M18.113,121.961
                                                        c-0.656,0-1.183-0.532-1.183-1.183c0-0.656,0.526-1.185,1.183-1.185c0.653,0,1.183,0.529,1.183,1.185
                                                        C19.295,121.429,18.766,121.961,18.113,121.961z"/>
                                        </g>
                                        <text id="Street_Address_Here_Singapore_x2C__2222_4_" transform="matrix(1.0021 0 0 1 33.1539 120.2589)"><tspan x="0" y="0" style="fill:#FFFFFF; font-family:'Lato-Regular'; font-size:6.5237px;">Street Address Here</tspan><tspan id="address" x="0" y="7.829" style="fill:#FFFFFF; font-family:'Lato-Regular'; font-size:6.5237px;">Hyderabad</tspan></text>
                                </g>
                                <g>
                                        <g>
                                                <path style="fill:#FFFFFF;" d="M26.219,102.382c0,4.474-3.63,8.107-8.107,8.107c-4.474,0-8.104-3.632-8.104-8.107
                                                        c0-4.474,3.63-8.104,8.104-8.104C22.589,94.278,26.219,97.908,26.219,102.382z"/>
                                                <path style="fill:#00A79D;" d="M22.668,99.757l-1.994-1.992c-0.115-0.117-0.303-0.117-0.417,0l-2.864,2.864
                                                        c-0.056,0.056-0.086,0.127-0.086,0.209c0,0.076,0.03,0.153,0.086,0.209l0.671,0.672l-0.552,0.549l-0.671-0.672
                                                        c-0.115-0.114-0.3-0.114-0.417,0l-2.862,2.864c-0.056,0.056-0.089,0.132-0.089,0.211s0.033,0.153,0.089,0.211l1.992,1.989    
                                                        c0.056,0.059,0.132,0.086,0.209,0.086c0.076,0,0.15-0.028,0.209-0.086l2.861-2.864c0.056-0.056,0.089-0.132,0.089-0.209      
                                                        c0-0.081-0.033-0.153-0.089-0.209l-0.669-0.671l0.549-0.552l0.671,0.671c0.059,0.059,0.135,0.089,0.209,0.089
                                                        c0.076,0,0.153-0.031,0.211-0.089l2.864-2.864c0.056-0.053,0.084-0.13,0.084-0.206C22.752,99.887,22.724,99.811,22.668,99.757
                                                        z M18.206,103.799l-2.444,2.447l-1.575-1.575l2.444-2.447l0.463,0.463l-0.738,0.738c-0.028,0.028-0.046,0.066-0.046,0.104    
                                                        c0,0.041,0.018,0.076,0.046,0.107l0.44,0.44c0.031,0.028,0.066,0.043,0.104,0.043c0.038,0,0.076-0.015,0.107-0.043l0.735-0.74
                                                        L18.206,103.799z M19.593,102.41l-0.46-0.46l0.738-0.738c0.058-0.059,0.058-0.153,0-0.211l-0.44-0.438
                                                        c-0.056-0.061-0.153-0.061-0.209,0l-0.738,0.738l-0.46-0.463l2.442-2.447l1.575,1.577L19.593,102.41z"/>
                                        </g>
                                        <text id="urwebsitename.com_urname_x40_email.com_6_" transform="matrix(1.0021 0 0 1 33.4029 99.992)"><tspan x="0" y="5.829" style="fill:#FFFFFF; font-family:'Lato-Regular'; font-size:6.5237px;">chakri.striker@gmail.com</tspan></text>
                                </g>
                                <g>
                                        <g>
                                                <path style="fill:#00A79D;" d="M26.219,82.119c0,4.474-3.63,8.104-8.107,8.104c-4.474,0-8.104-3.63-8.104-8.104
                                                        c0-4.477,3.63-8.107,8.104-8.107C22.589,74.012,26.219,77.642,26.219,82.119z"/>
                                                <path style="fill:#FFFFFF;" d="M20.186,77.382h-4.144c-0.488,0-0.888,0.399-0.888,0.885v7.697
                                                        c0,0.488,0.399,0.888,0.888,0.888h4.144c0.488,0,0.888-0.399,0.888-0.888v-7.697C21.073,77.782,20.674,77.382,20.186,77.382z 
                                                         M17.522,77.973h1.183v0.295h-1.183V77.973z M18.113,86.26c-0.242,0-0.443-0.198-0.443-0.442c0-0.244,0.201-0.445,0.443-0.445
                                                        c0.247,0,0.445,0.201,0.445,0.445C18.558,86.061,18.359,86.26,18.113,86.26z M20.483,84.189c0,0.326-0.27,0.59-0.593,0.59    
                                                        h-3.551c-0.328,0-0.593-0.265-0.593-0.59v-4.736c0-0.326,0.265-0.59,0.593-0.59h3.551c0.323,0,0.593,0.265,0.593,0.59V84.189z
                                                        "/>
                                        </g>
                                        <text id="_x2B_000_12345_6789__x2B_000_12345_6789_4_" transform="matrix(1.0021 0 0 1 33.1539 79.726)"><tspan x="0" y="5.829" style="fill:#FFFFFF; font-family:'Lato-Regular'; font-size:6.5237px;">9494339486</tspan></text>
                                </g>
                        </g>
                        <g>

                                        <text transform="matrix(1.0026 0 0 1 10.0081 45.2938)" style="fill:#FFFFFF; font-family:'Raleway-Light'; font-size:6.9713px;">Software Engineer</text>
                                <text transform="matrix(1.0026 0 0 1 10.6266 37.174)"><tspan x="0" y="0" style="fill:#FFFFFF; font-family:'Raleway-Bold'; font-size:10.9548px;">Chakri Reddy</tspan></text>
                                <rect x="10.008" y="49.239" style="fill-rule:evenodd;clip-rule:evenodd;fill:#00A79D;" width="23.28" height="1.44"/>
                        </g>
                </g>
                <g>
                        <g>
                                <text transform="matrix(1 0 0 1 174.4186 58.7697)"><tspan x="0" y="0" style="fill:#303642; font-family:'MyriadPro-Bold'; font-size:8.8723px;">COMPANY LOGO</tspan></text>

                                        <text transform="matrix(1 0 0 1 174.7325 64.8186)" style="fill:#303642; font-family:'MyriadPro-Regular'; font-size:3.9398px;">S L O G A N G O E S H E R E</text>
                        </g>
                        <g>
                         <defs>
            <clipPath id="myCircle">
               <circle cx="250" cy="50" r="150" fill="#FFFFFF" />
            </clipPath>
         </defs>
           <image width="420" height="50" xlink:href="https://www.shutterstock.com/shutterstock/photos/1757050334/display_1500/stock-vector-trilabs-three-lab-logo-vector-icon-illustration-1757050334.jpg" clip-path="url(#myCircle)" />

                                            </g>
                </g>
                <g id="XMLID_462_">

                                <rect id="XMLID_512_" x="188.552" y="94.706" transform="matrix(-1 -1.224647e-16 1.224647e-16 -1 413.1524 225.4596)" style="fill:#FFFFFF;stroke:#00A79D;stroke-miterlimit:10;" width="36.048" height="36.048"/>
                        <g id="XMLID_463_">
                                <path id="XMLID_509_" style="fill:#303642;" d="M220.488,123.012c-0.795-0.001-1.59-0.002-2.385-0.002
                                        c-0.013,0-0.026,0.004-0.039,0.006c0-0.401,0-0.803,0-1.213c-0.413,0-0.808,0-1.211,0c0,0.399,0,0.791,0,1.203
                                        c0.404,0.002,0.809,0.005,1.214,0.007c-0.001,0.4-0.003,0.8-0.004,1.2l0.004-0.004c-0.035,0.002-0.071,0.007-0.106,0.007
                                        c-0.736,0-1.471,0-2.207,0c-0.031,0-0.062,0-0.111,0c-0.009-0.135-0.003-0.266-0.004-0.397c-0.001-0.133,0-0.266,0-0.399
                                        c0-0.132,0-0.264,0-0.403c-0.408,0-0.8,0-1.191,0c-0.005,0.004-0.008,0.007-0.011,0.01c-0.003,0.003-0.008,0.007-0.008,0.011
                                        c0,0.385,0,0.77,0,1.152c-0.1,0.031-1.008,0.039-1.198,0.012c0-0.39,0-0.782,0-1.183c-1.212,0-2.411,0-3.61,0
                                        c-0.027,0.096-0.037,0.842-0.014,1.194c0.399,0.007,0.8,0.002,1.201,0.003c0.398,0.001,0.796,0,1.211,0c0,0.407,0,0.803,0,1.213
                                        c0.408,0,0.801,0,1.184,0c0.013,0.021,0.021,0.029,0.021,0.036c0,0.39-0.001,0.779-0.002,1.169l0.003-0.004
                                        c-0.07,0.002-0.141,0.006-0.211,0.006c-0.738-0.001-1.475-0.002-2.213-0.003c0-0.394,0-0.787,0-1.181
                                        c-0.095-0.027-1.031-0.033-1.192-0.006c0,0.391,0,0.783,0,1.171c0.012,0.007,0.02,0.015,0.027,0.015
                                        c0.39-0.001,0.779-0.002,1.169-0.003c0.001,0.204,0.003,0.408,0.003,0.611c0,0.201,0.005,0.403-0.004,0.601
                                        c-0.815,0-1.61,0-2.414,0c-0.007-0.405,0.003-0.801-0.006-1.205c-0.071,0-0.124,0-0.176,0c-0.341-0.002-0.682-0.004-1.023-0.007
                                        l0.003,0.004c0-0.394,0-0.788,0-1.201c0.198-0.001,0.395-0.002,0.592-0.003c0.195,0,0.389,0,0.581,0
                                        c0.032-0.099,0.042-2.198,0.013-2.419c-0.39,0-0.782,0-1.183,0c0-0.41,0-0.806,0-1.215c0.801,0,1.597,0,2.407,0
                                        c0-0.405,0-0.797,0-1.204c0.405,0,0.798,0,1.185,0c0.031-0.107,0.04-2.208,0.013-2.415c-0.395-0.002-0.792-0.004-1.19-0.005
                                        c0-0.394,0-0.788,0-1.178c-0.105-0.03-1.027-0.038-1.216-0.012c-0.002,0.395-0.004,0.793-0.006,1.19
                                        c-0.4-0.001-0.8-0.002-1.2-0.004l0.004,0.003c-0.004-0.396-0.007-0.793-0.011-1.205c-0.407,0-0.802,0-1.214,0
                                        c0-0.417,0-0.818,0-1.22l-0.003,0.004c0.402,0,0.804,0,1.22,0c0-0.403,0-0.795,0-1.195c0.81,0,1.605,0,2.419,0
                                        c0.007,0.13,0.002,0.261,0.003,0.392c0.001,0.128,0,0.257,0,0.385c0,0.133,0,0.265,0,0.417c0.176,0.007,0.347,0.002,0.517,0.003
                                        c0.173,0.001,0.346,0,0.519,0s0.346,0,0.518,0c0.169,0,0.337,0,0.505,0c0.173,0,0.346,0,0.518,0c0.173,0,0.346,0,0.518,0
                                        c0.172,0,0.343,0,0.527,0c0,0.406,0,0.799,0,1.188c0.103,0.033,1.012,0.04,1.197,0.012c0-0.391,0-0.783,0-1.194
                                        c0.062-0.002,0.113-0.006,0.164-0.006c0.7,0,1.4,0,2.1,0c0.053,0,0.106-0.002,0.159-0.003l-0.004-0.004
                                        c0.002,0.053,0.006,0.106,0.006,0.159c0.001,0.7,0,1.4,0,2.101c0,0.048,0,0.096,0,0.159c0.137,0.018,0.269,0.006,0.399,0.008
                                        c0.133,0.002,0.266,0.001,0.399,0.001c0.132,0,0.264,0,0.414,0c0.005,0.274,0.002,0.538,0.003,0.802
                                        c0.001,0.266,0,0.532,0,0.798c0,0.265,0,0.53,0,0.803c0.404,0,0.796,0,1.205,0c0-0.799,0-1.594,0-2.407c0.418,0,0.821,0,1.222,0
                                        l-0.003-0.004c-0.001,0.137-0.002,0.274-0.003,0.412c-0.001,0.133-0.001,0.266,0,0.398c0.001,0.135-0.005,0.27,0.005,0.412
                                        c0.214,0,0.408,0,0.602,0c0.197,0,0.395,0.001,0.591,0.002c0,0.406,0,0.794,0,1.195c-0.4,0-0.792,0-1.19,0
                                        c-0.003,0.034-0.007,0.055-0.007,0.076c0.001,0.784,0.002,1.568,0.003,2.351L220.488,123.012z M212.03,118.183
                                        c0,1.199,0,2.394,0,3.59c0.086,0.027,3.379,0.038,3.6,0.01c0-1.193,0-2.388,0-3.6
                                        C214.429,118.183,213.234,118.183,212.03,118.183z"/>
                                <path id="XMLID_508_" style="fill:#303642;" d="M210.798,109.713c0.003-0.296,0.006-0.591,0.007-0.887
                                        c0-0.115-0.004-0.229-0.007-0.344l0.005,0.005c-0.397,0-0.794,0-1.203,0c0-0.065,0-0.117,0-0.169c0-0.801,0-1.603,0-2.404
                                        c0-0.35,0.002-0.699,0.003-1.049l0.003,0.003c-0.404,0.011-0.809-0.007-1.221,0.01c0,0.214,0.001,0.413,0,0.611
                                        c-0.001,0.196,0.005,0.393-0.005,0.596c-0.076,0-0.133,0-0.19,0c-0.336,0.002-0.672,0.004-1.008,0.006l0.003-0.003
                                        c-0.001,0.4-0.002,0.801-0.003,1.201c0.39-0.001,0.779-0.002,1.169-0.003c0.007,0,0.015,0.008,0.027,0.015
                                        c0,0.389,0,0.781,0,1.187c-0.402-0.002-0.797,0.005-1.193-0.005c0-0.411,0-0.805,0-1.198c-0.402,0-0.804,0-1.222,0
                                        c0-0.066,0-0.113,0-0.161c-0.002-0.345-0.004-0.691-0.006-1.037l0.003,0.003c-0.4,0-0.8,0-1.2,0l0.003-0.003
                                        c-0.002,0.049-0.006,0.097-0.006,0.146c-0.001,0.301,0,0.602-0.001,0.903c0,0.046-0.004,0.093-0.006,0.137
                                        c-0.41,0-0.802,0-1.208,0c0-0.056,0-0.103,0-0.151c-0.002-0.345-0.004-0.69-0.006-1.035l0.003,0.004
                                        c-0.4,0-0.799,0.001-1.199,0.001l0.003-0.003c-0.002,0.049-0.006,0.097-0.006,0.146c0,0.695,0,1.39,0,2.086
                                        c0,0.048,0,0.097,0,0.164c-0.141,0.009-0.276,0.003-0.411,0.005c-0.133,0.001-0.266,0.001-0.399,0
                                        c-0.137-0.001-0.275-0.002-0.412-0.003l0.004-0.003c0,0.402,0,0.804,0,1.222c-0.062,0-0.114,0-0.166,0
                                        c-1.099,0-2.197,0-3.296,0.001c-0.057,0-0.113,0.01-0.17,0.016l0.002-0.003c0.005,0.021,0.013,0.042,0.013,0.063
                                        c0,0.375-0.001,0.75-0.002,1.125l-0.004-0.003c0.053,0.002,0.106,0.006,0.159,0.007c0.704,0,1.409,0,2.113,0
                                        c0.048,0,0.095,0,0.153,0c0,0.418,0,0.82,0,1.221l-0.003-0.003c0.791-0.001,1.583-0.002,2.374-0.002
                                        c0.017,0,0.035,0.005,0.052,0.007c-0.003-0.017-0.007-0.035-0.007-0.052c0-0.766-0.001-1.532,0-2.297
                                        c0-0.025,0.009-0.049,0.014-0.072c0.401,0,0.795,0,1.188,0c0.002-0.405,0.005-0.81,0.007-1.214c0.412,0,0.804,0,1.203,0
                                        c0,0.403,0,0.798,0,1.211c-0.41,0-0.812,0-1.214,0c0.002,0.026,0.007,0.053,0.007,0.079c0,0.751,0,1.503,0,2.254
                                        c0,0.031-0.005,0.061-0.007,0.092c0.394-0.002,0.788-0.004,1.182-0.004c0.011,0,0.022,0.011,0.041,0.021
                                        c0,0.051,0,0.104,0,0.156c0.002,0.341,0.004,0.682,0.006,1.022l-0.003-0.003c0.022,0.002,0.044,0.006,0.066,0.006
                                        c0.749,0,1.498,0,2.247,0c0.03,0,0.06-0.005,0.088-0.007c0.027-0.14,0.022-2.305-0.007-2.413c-0.129,0-0.262,0-0.394,0
                                        c-0.133,0-0.266,0.002-0.399,0c-0.131-0.002-0.262,0.01-0.389-0.008c-0.025-0.267-0.015-1.098,0.012-1.19
                                        c0.796,0,1.592,0,2.401,0c0,1.207,0,2.406,0,3.61c0.41,0,0.805,0,1.215,0c0-0.401,0-0.793,0-1.199c0.406,0,0.798,0,1.184,0
                                        c0.01-0.022,0.016-0.03,0.016-0.037c-0.001-0.394-0.002-0.788-0.003-1.183l0.004,0.004c-0.397,0-0.794,0-1.204,0
                                        c0.001-0.408-0.003-0.803,0.003-1.201c0.413,0,0.807,0,1.201,0L210.798,109.713z"/>
                                <path id="XMLID_505_" style="fill:#303642;" d="M199.916,106.08c-2.82,0-5.633,0-8.454,0c0-2.823,0-5.64,0-8.464
                                        c2.82,0,5.633,0,8.454,0C199.916,100.439,199.916,103.256,199.916,106.08z M198.708,104.867c0-2.011,0-4.016,0-6.022
                                        c-0.094-0.026-5.83-0.036-6.039-0.01c0,2.005,0,4.01,0,6.032C194.686,104.867,196.692,104.867,198.708,104.867z"/>
                                <path id="XMLID_502_" style="fill:#303642;" d="M213.243,106.078c-0.027-0.163-0.02-8.365,0.006-8.461c2.809,0,5.618,0,8.433,0
                                        c0,2.823,0,5.637,0,8.461C218.859,106.078,216.05,106.078,213.243,106.078z M220.473,104.867c0-2.011,0-4.017,0-6.022
                                        c-0.094-0.026-5.836-0.036-6.039-0.009c0,2.004,0,4.01,0,6.032C216.45,104.867,218.457,104.867,220.473,104.867z"/>
                                <path id="XMLID_499_" style="fill:#303642;" d="M191.462,127.842c0-2.819,0-5.628,0-8.438c0.019-0.005,0.031-0.011,0.043-0.011
                                        c2.78-0.001,5.561-0.001,8.341-0.001c0.018,0,0.035,0.003,0.053,0.005c0.004,0.001,0.007,0.005,0.01,0.008
                                        c0.003,0.003,0.006,0.006,0.01,0.01c0,2.806,0,5.612,0,8.427C197.091,127.842,194.277,127.842,191.462,127.842z M198.71,120.596
                                        c-2.017,0-4.027,0-6.043,0c0,2.014,0,4.02,0,6.032c2.017,0,4.027,0,6.043,0C198.71,124.614,198.71,122.609,198.71,120.596z"/>
                                <path id="XMLID_498_" style="fill:#303642;" d="M196.304,112.134c-0.035-0.003-0.07-0.007-0.106-0.007c-0.736,0-1.472,0-2.208,0
                                        c-0.031,0-0.062,0-0.091,0c-0.03,0.095-0.04,2.212-0.011,2.417c0.39,0,0.782,0,1.189,0c0,0.406,0,0.798,0,1.209
                                        c0.416,0.001,0.817,0,1.218,0c0.399,0,0.798,0,1.197,0c0.404,0,0.807,0,1.21,0c0.399,0,0.798,0,1.197,0c0.402,0,0.804,0,1.218,0
                                        c0,0.417,0,0.82,0,1.222l-0.003-0.004c0.301-0.001,0.602-0.003,0.903-0.003c0.855,0,1.709,0,2.564,0c0.052,0,0.105,0,0.173,0
                                        c0-0.407,0-0.803,0-1.211c0.413-0.004,0.81-0.007,1.207-0.011l-0.003,0.004c0.001-0.39,0.002-0.779,0.002-1.169
                                        c0-0.007-0.008-0.015-0.02-0.036c-0.384,0-0.776,0-1.179,0c0-0.416,0-0.818,0-1.22l0.003,0.003
                                        c-0.234,0.001-0.467,0.003-0.701,0.003c-0.176,0-0.352-0.005-0.528-0.007c0.001,0.394,0.003,0.788,0.004,1.182
                                        c0,0.011-0.011,0.022-0.016,0.031c-0.799,0-1.594,0-2.399,0c-0.007-0.405,0.003-0.801-0.006-1.206c-0.061,0-0.105,0-0.149,0
                                        c-0.306,0-0.612,0.001-0.917-0.001c-0.048,0-0.096-0.01-0.143-0.015c0.005,0.035,0.015,0.069,0.015,0.104
                                        c0.001,0.341,0.001,0.682,0,1.023c0,0.03-0.005,0.06-0.008,0.097c-0.398,0-0.789,0-1.189,0c0-0.402,0-0.798,0-1.201
                                        c0.051-0.002,0.094-0.006,0.137-0.006c0.306,0,0.611,0,0.917-0.001c0.043,0,0.087-0.009,0.13-0.013
                                        c0.004-0.012,0.012-0.025,0.012-0.037c-0.001-0.384-0.003-0.768-0.004-1.152l0.003,0.003c-0.031-0.002-0.062-0.006-0.092-0.006
                                        c-0.742,0-1.485,0-2.227,0c-0.035,0-0.07,0.004-0.106,0.007l0.004-0.004c0,0.397,0,0.794,0,1.204
                                        c-0.408-0.002-0.803,0.003-1.201-0.004c0-0.413,0-0.806,0-1.2L196.304,112.134z"/>
                                <path id="XMLID_497_" style="fill:#303642;" d="M202.34,126.63c0.388,0.001,0.776,0.003,1.165,0.004
                                        c0.008,0,0.016-0.007,0.024-0.01c0.005-0.048,0.013-0.095,0.013-0.143c0.001-0.704,0.001-1.408,0.001-2.112
                                        c0-0.047,0-0.094,0-0.138c0.19-0.027,1.113-0.019,1.207,0.008c0,0.795,0,1.59,0,2.39c-0.028,0.004-0.049,0.009-0.07,0.009
                                        c-0.354,0-0.709,0.001-1.063,0c-0.03,0-0.06-0.01-0.09-0.015c0.006,0.048,0.015,0.096,0.016,0.143
                                        c0.001,0.315,0,0.629,0.001,0.944c0,0.043,0.004,0.086,0.007,0.136c1.207,0,2.406,0,3.622,0
                                        c0.019-0.403-0.002-0.809,0.011-1.214l0.003,0.004c-0.402,0-0.804,0-1.224,0c0-1.213,0-2.414,0-3.628c-0.813,0-1.609,0-2.41,0
                                        c0-0.408,0-0.804,0-1.212c0.168,0,0.326,0,0.485,0c0.16,0,0.319,0,0.478,0c0.164,0,0.328,0,0.492,0c0.16,0,0.319,0.001,0.479,0
                                        c0.157-0.001,0.315,0.005,0.472-0.004c0-0.411,0-0.805,0-1.199l0.003,0.004c-0.349-0.002-0.698-0.004-1.047-0.007
                                        c-0.047,0-0.095,0-0.154,0c0-0.403,0-0.79,0-1.168c-0.019-0.014-0.026-0.023-0.033-0.023c-0.397,0-0.795,0.001-1.192,0.001
                                        l0.005-0.005c0.001,0.133,0.002,0.266,0.003,0.398c0.001,0.133,0.002,0.266,0,0.398c-0.003,0.13,0.011,0.262-0.01,0.398
                                        c-0.07,0-0.127,0-0.184,0c-0.336,0.002-0.672,0.004-1.008,0.006l0.004-0.003c-0.002,0.044-0.006,0.088-0.006,0.132
                                        c0,1.926,0,3.852,0,5.777c0,0.044,0.004,0.088,0.007,0.132L202.34,126.63z"/>
                                <path id="XMLID_496_" style="fill:#303642;" d="M204.763,97.616c-1.221,0-2.421,0-3.619,0c-0.027,0.097-0.034,2.251-0.005,2.411
                                        c0.39,0,0.783,0,1.172,0c0.031,0.103,0.039,1.021,0.012,1.216c-0.393,0-0.789,0-1.193,0c0,0.812,0,1.608,0,2.403
                                        c0.099,0.026,1.043,0.032,1.206,0.005c0-0.393,0-0.789,0-1.197c0.813,0,1.608,0,2.418,0c0-0.405,0-0.797,0-1.203
                                        c0.405,0,0.797,0,1.185,0c0.029-0.109,0.036-1.044,0.01-1.216c-0.39,0-0.782,0-1.187,0
                                        C204.763,99.223,204.763,98.428,204.763,97.616z"/>
                                <path id="XMLID_495_" style="fill:#303642;" d="M214.417,126.629c0.31,0.003,0.62,0.005,0.93,0.007c0.092,0.001,0.184,0,0.292,0
                                        c0,0.409,0,0.805,0,1.208c2.022,0,4.026,0,6.04,0c0-0.402,0-0.797,0-1.207c-0.398,0-0.79,0-1.181,0
                                        c-0.008-0.025-0.015-0.037-0.015-0.049c0-0.793,0.001-1.586,0.001-2.379l0.003,0.004c-0.808,0-1.617,0-2.425,0l0.004-0.004
                                        c-0.002,0.049-0.006,0.097-0.007,0.146c0,0.31,0,0.62-0.001,0.93c0,0.047-0.004,0.093-0.006,0.134
                                        c-0.021,0.006-0.025,0.007-0.029,0.008c-0.009,0.002-0.017,0.003-0.026,0.003c-1.156,0.001-2.311,0.001-3.467,0.001
                                        c-0.013,0-0.027,0-0.04,0.001c-0.005,0-0.009,0-0.013,0.001c-0.009,0.001-0.017,0.003-0.026,0.005
                                        c-0.004,0.001-0.008,0.003-0.011,0.006c-0.003,0.003-0.006,0.007-0.02,0.024c0,0.379,0,0.773,0,1.166L214.417,126.629z"/>
                                <path id="XMLID_494_" style="fill:#303642;" d="M208.382,100.023c0.001,0.789,0.002,1.578,0.002,2.368
                                        c0,0.013-0.003,0.026-0.008,0.056c-0.128,0.01-0.26,0.003-0.39,0.004c-0.129,0.001-0.257,0-0.386,0c-0.133,0-0.265,0-0.396,0
                                        c-0.01,0.018-0.021,0.029-0.021,0.04c0.001,0.394,0.002,0.788,0.004,1.183l-0.005-0.005c0.779-0.001,1.559-0.002,2.338-0.002
                                        c0.025,0,0.049,0.009,0.08,0.015c0,0.06,0,0.112,0,0.165c0.002,0.341,0.004,0.682,0.006,1.023l-0.003-0.003
                                        c0.397,0.003,0.794,0.007,1.203,0.01c0,0.061,0,0.109,0,0.156c0,0.625,0,1.249,0,1.874c0,0.527-0.002,1.054-0.003,1.581
                                        l-0.005-0.005c0.031,0.003,0.062,0.007,0.092,0.007c0.745,0,1.49,0,2.235,0c0.027,0,0.053-0.003,0.079-0.004
                                        c0.029-0.094,0.035-1.029,0.007-1.202c-0.39,0-0.782,0-1.187,0c0-1.209,0-2.404,0-3.616c-0.409,0-0.805,0-1.21,0
                                        c-0.003-0.059-0.007-0.102-0.007-0.146c-0.001-0.315,0-0.63-0.001-0.944c0-0.048-0.01-0.096-0.016-0.144l0.002,0.002
                                        c-0.026,0.004-0.051,0.013-0.077,0.013c-0.346,0.001-0.691,0.001-1.037,0c-0.021,0-0.042-0.004-0.064-0.006
                                        c-0.006-0.018-0.013-0.03-0.013-0.043c0-0.793,0.001-1.586,0.002-2.379l0.003,0.003c-0.41,0-0.819,0-1.228,0L208.382,100.023z"
                                        />
                                <path id="XMLID_493_" style="fill:#303642;" d="M214.421,112.133c0-0.402,0-0.804,0-1.218c-0.398,0-0.786,0-1.193,0
                                        c-0.002-0.404,0-0.796-0.001-1.194c-0.029-0.006-0.054-0.015-0.078-0.015c-0.766-0.001-1.532-0.001-2.298,0
                                        c-0.017,0-0.035,0.005-0.052,0.007l0.005-0.005c0,0.4,0,0.8,0,1.201l-0.004-0.004c0.049,0.002,0.097,0.006,0.146,0.007
                                        c0.31,0.001,0.621,0,0.931,0.001c0.047,0,0.093,0.004,0.136,0.007c0,0.813,0,1.609,0,2.414c-0.142,0-0.275,0-0.407,0
                                        c-0.133,0-0.266-0.001-0.399,0c-0.131,0.001-0.262-0.007-0.391,0.005c0,0.41,0,0.803,0,1.2c1.61,0,3.211,0,4.823,0
                                        c0.007-0.405-0.003-0.801,0.006-1.205c0.071,0,0.124,0,0.176,0c0.341-0.002,0.682-0.004,1.023-0.006l-0.003,0.003
                                        c0-0.393,0-0.787,0-1.188c-0.023-0.005-0.047-0.014-0.072-0.014c-0.783,0-1.566,0.001-2.35,0.002
                                        c0.001,0.389,0.002,0.778,0.003,1.167c0,0.007-0.007,0.015-0.013,0.026c-0.388,0-0.779,0-1.172,0c0-0.401,0-0.792,0-1.18
                                        c0.016-0.007,0.024-0.013,0.032-0.013C213.652,112.131,214.037,112.132,214.421,112.133z"/>
                                <path id="XMLID_492_" style="fill:#303642;" d="M218.068,109.709c0,0.394,0,0.788,0,1.181c0.097,0.026,2.256,0.031,2.413,0.004
                                        c0-0.389,0-0.782,0-1.188c0.406,0,0.798,0,1.199,0c0-0.81,0-1.606,0-2.402c-0.097-0.025-2.26-0.03-2.411-0.003
                                        c0,0.794,0,1.59,0,2.404c-0.056,0-0.098,0-0.141,0c-0.306,0-0.612,0-0.918,0c-0.049,0-0.097,0.005-0.146,0.007L218.068,109.709z
                                        "/>
                                <path id="XMLID_491_" style="fill:#303642;" d="M220.485,116.976c0-0.402,0-0.804,0-1.221c0.404,0,0.796,0,1.195,0
                                        c0-1.213,0-2.412,0-3.62c-0.396,0-0.788,0-1.193,0c0,0.797,0,1.593,0,2.405c-0.059,0.003-0.105,0.007-0.152,0.007
                                        c-0.31,0.001-0.621,0-0.931,0.001c-0.049,0-0.097,0.005-0.146,0.007l0.005-0.005c0,0.396,0,0.793,0,1.201
                                        c-0.408,0-0.804,0-1.201,0l0.004-0.004c-0.025,0.301-0.013,1.12,0.02,1.222c0.05,0,0.103,0,0.155,0
                                        c0.749,0.001,1.497,0.002,2.246,0.003L220.485,116.976z"/>
                                <path id="XMLID_490_" style="fill:#303642;" d="M207.186,103.674c-0.044-0.003-0.088-0.007-0.132-0.007
                                        c-1.122,0-2.243,0-3.364,0c-0.043,0-0.087,0-0.145,0c-0.002,0.817-0.004,1.623-0.006,2.428l-0.003-0.004
                                        c0.409,0,0.818,0,1.228,0l-0.003,0.003c0-0.402,0-0.804,0-1.214c0.404,0,0.796,0,1.2,0c0,0.41,0,0.812,0,1.214l-0.003-0.003
                                        c0.409,0,0.819,0,1.228,0l-0.003,0.003c0-0.808,0-1.617,0-2.425L207.186,103.674z"/>
                                <path id="XMLID_489_" style="fill:#303642;" d="M219.259,114.556c0.002-0.04,0.007-0.079,0.007-0.119
                                        c0.001-0.726,0.001-1.451,0-2.177c0-0.039-0.003-0.078-0.005-0.125c-0.398,0-0.79,0-1.195,0c0,0.392,0,0.783,0,1.188
                                        c-0.147,0.018-0.283,0.007-0.418,0.009c-0.133,0.002-0.265,0.001-0.398,0c-0.137-0.001-0.274-0.002-0.411-0.003l0.003-0.003
                                        c0,0.808,0,1.616,0,2.425l-0.004-0.004c0.106,0.002,0.211,0.007,0.317,0.006c0.304-0.001,0.608-0.004,0.912-0.006l-0.004,0.004
                                        c0-0.396,0-0.793,0-1.201c0.408,0,0.804,0,1.201,0L219.259,114.556z"/>
                                <path id="XMLID_488_" style="fill:#303642;" d="M218.064,109.713c-0.001-0.478-0.003-0.957-0.003-1.435
                                        c-0.001-0.283,0-0.567,0-0.851c0-0.043-0.004-0.086-0.006-0.136c-0.805,0-1.6,0-2.405,0c0,0.801,0,1.6,0,2.414
                                        c0.051,0,0.099,0,0.146,0c0.704,0,1.409,0,2.113,0c0.053,0,0.106,0.003,0.159,0.004L218.064,109.713z"/>
                                <path id="XMLID_487_" style="fill:#303642;" d="M192.648,110.9c-0.048,0.004-0.096,0.011-0.144,0.011
                                        c-0.301,0.001-0.602,0-0.904,0c-0.043,0-0.086,0-0.138,0c0,1.616,0,3.218,0,4.82c0.088,0.027,1.013,0.035,1.192,0.007
                                        c0.002-0.037,0.006-0.075,0.006-0.114c0-1.533,0-3.066-0.001-4.599c0-0.044-0.01-0.087-0.014-0.13L192.648,110.9z"/>
                                <path id="XMLID_486_" style="fill:#303642;" d="M192.657,108.484c0.001,0.788,0.002,1.577,0.002,2.365
                                        c0,0.017-0.007,0.034-0.011,0.051l-0.004-0.003c0.034,0.005,0.069,0.014,0.104,0.014c0.749,0.001,1.497,0.001,2.246,0
                                        c0.022,0,0.044-0.003,0.083-0.005c0.008-0.396,0.002-0.791,0.004-1.2c-0.406,0-0.798,0-1.202,0c0-0.406,0-0.799,0-1.207
                                        c-0.416-0.019-0.822,0.001-1.227-0.011L192.657,108.484z"/>
                                <path id="XMLID_485_" style="fill:#303642;" d="M207.185,118.172c-0.402,0-0.804,0-1.222,0c0,0.066,0,0.114,0,0.161
                                        c0,0.701,0,1.401,0,2.102c0,0.053-0.002,0.106-0.003,0.16l-0.003-0.004c0.402,0,0.804,0,1.221,0c0-0.07,0-0.122,0-0.174
                                        c0.001-0.749,0.002-1.499,0.003-2.248L207.185,118.172z"/>
                                <path id="XMLID_484_" style="fill:#303642;" d="M209.603,100.023c0.035,0.002,0.07,0.006,0.106,0.006c0.726,0,1.452,0,2.178,0
                                        c0.039,0,0.078-0.003,0.126-0.006c0-0.398,0-0.789,0-1.19c-0.801,0-1.599,0-2.395,0c-0.006,0.011-0.013,0.018-0.013,0.025
                                        c0,0.389,0.002,0.779,0.003,1.168L209.603,100.023z"/>
                                <path id="XMLID_483_" style="fill:#303642;" d="M197.497,118.167c0-0.399,0-0.788,0-1.176c-0.096-0.027-2.247-0.033-2.408-0.007
                                        c0,0.391,0,0.783,0,1.183C195.891,118.167,196.687,118.167,197.497,118.167z"/>
                                <path id="XMLID_482_" style="fill:#303642;" d="M201.115,108.487c0-0.394,0-0.788,0-1.181c-0.095-0.027-2.227-0.033-2.39-0.006
                                        c0,0.391,0,0.783,0,1.183c0.03,0.003,0.055,0.007,0.081,0.007c0.749,0,1.498,0,2.247,0c0.022,0,0.044-0.004,0.066-0.006
                                        L201.115,108.487z"/>
                                <path id="XMLID_481_" style="fill:#303642;" d="M201.118,116.976c-0.031-0.002-0.062-0.006-0.092-0.006
                                        c-0.731,0-1.462,0-2.194,0c-0.031,0-0.061,0-0.111,0c-0.006,0.402-0.001,0.797-0.003,1.199c0.805,0,1.596,0,2.384,0
                                        c0.007-0.012,0.015-0.02,0.015-0.027c-0.001-0.39-0.002-0.779-0.003-1.169L201.118,116.976z"/>
                                <path id="XMLID_480_" style="fill:#303642;" d="M202.343,126.633c-0.402,0-0.803,0-1.213,0c0,0.412,0,0.808,0,1.211
                                        c0.399,0,0.791,0,1.203,0c0.002-0.404,0.005-0.809,0.007-1.214L202.343,126.633z"/>
                                <path id="XMLID_479_" style="fill:#303642;" d="M202.34,106.094c0-0.402,0-0.803,0-1.213c-0.412,0-0.808,0-1.211,0
                                        c0,0.399,0,0.791,0,1.203c0.404,0.002,0.809,0.005,1.214,0.007L202.34,106.094z"/>
                                <path id="XMLID_478_" style="fill:#303642;" d="M197.487,109.722c0.005-0.03,0.015-0.06,0.015-0.09c0.001-0.35,0.001-0.7,0-1.05
                                        c0-0.026-0.005-0.051-0.009-0.084c-0.397,0-0.789,0-1.189,0c0,0.402,0,0.798,0,1.201c0.051,0.002,0.094,0.006,0.138,0.006
                                        c0.306,0.001,0.611,0,0.917,0.001c0.043,0,0.087,0.008,0.13,0.013L197.487,109.722z"/>
                                <path id="XMLID_477_" style="fill:#303642;" d="M197.5,110.908c-0.394,0-0.787,0-1.177,0c-0.012,0.022-0.023,0.034-0.023,0.045
                                        c0.001,0.394,0.003,0.788,0.004,1.182l-0.005-0.005c0.4,0,0.8,0,1.201,0l-0.004,0.004c0.002-0.044,0.007-0.088,0.007-0.132
                                        c-0.002-0.366-0.004-0.731-0.007-1.097L197.5,110.908z"/>
                                <path id="XMLID_476_" style="fill:#303642;" d="M202.344,119.398c-0.301-0.003-0.601-0.005-0.902-0.007
                                        c-0.101-0.001-0.202,0-0.312,0c0,0.399,0,0.786,0,1.19c0.403,0.018,0.808-0.002,1.213,0.011l-0.004,0.003
                                        c0-0.4,0-0.801-0.001-1.201L202.344,119.398z"/>
                                <path id="XMLID_475_" style="fill:#303642;" d="M210.79,102.435c0.03,0.005,0.06,0.015,0.09,0.015c0.35,0.001,0.7,0.001,1.05,0
                                        c0.026,0,0.051-0.005,0.083-0.008c0-0.398,0-0.789,0-1.189c-0.402,0-0.798,0-1.202,0c-0.002,0.051-0.006,0.094-0.006,0.138
                                        c-0.001,0.306,0,0.611-0.001,0.917c0,0.043-0.008,0.087-0.013,0.13L210.79,102.435z"/>
                                <path id="XMLID_474_" style="fill:#303642;" d="M203.535,119.398c0.003-0.292,0.005-0.583,0.008-0.875
                                        c0.001-0.11,0-0.22,0-0.339c-0.402,0-0.793,0-1.184,0c-0.006,0.007-0.015,0.014-0.015,0.021c0,0.398,0.001,0.795,0.001,1.193
                                        l-0.005-0.005c0.4,0,0.801,0,1.201,0L203.535,119.398z"/>
                                <path id="XMLID_473_" style="fill:#303642;" d="M213.224,126.63c0,0.402,0,0.803,0,1.213c0.404,0,0.791,0,1.178,0
                                        c0.006-0.007,0.016-0.014,0.016-0.021c0-0.398,0-0.796-0.001-1.193l0.005,0.005c-0.4,0-0.801,0-1.201,0L213.224,126.63z"/>
                                <path id="XMLID_472_" style="fill:#303642;" d="M208.378,100.026c0-0.394,0-0.787,0-1.199c-0.395-0.008-0.79-0.002-1.193-0.004
                                        c0,0.407,0,0.798,0,1.187c0.013,0.007,0.02,0.015,0.027,0.015c0.39,0,0.779-0.001,1.169-0.002L208.378,100.026z"/>
                                <path id="XMLID_471_" style="fill:#303642;" d="M192.654,108.487c0-0.394,0-0.788,0-1.181c-0.095-0.027-1.031-0.033-1.192-0.006
                                        c0,0.391,0,0.783,0,1.171c0.013,0.007,0.02,0.015,0.027,0.015c0.39,0,0.779-0.002,1.169-0.003L192.654,108.487z"/>
                                <path id="XMLID_470_" style="fill:#303642;" d="M220.485,118.169c0.394,0,0.787,0,1.181,0c0.027-0.091,0.035-1.014,0.009-1.184
                                        c-0.007-0.004-0.015-0.012-0.022-0.012c-0.389,0.001-0.779,0.002-1.168,0.003l0.003-0.004c0,0.4,0,0.8,0,1.2L220.485,118.169z"
                                        />
                                <path id="XMLID_469_" style="fill:#303642;" d="M220.485,124.209c0.394,0,0.787,0,1.2,0c0.006-0.394,0.001-0.789,0.003-1.177
                                        c-0.02-0.011-0.028-0.019-0.035-0.019c-0.389,0-0.779,0.002-1.168,0.003l0.003-0.004c0,0.4,0,0.8,0,1.2L220.485,124.209z"/>
                                <path id="XMLID_468_" style="fill:#303642;" d="M209.607,118.169c-0.295,0.002-0.59,0.006-0.885,0.006
                                        c-0.114,0.001-0.229-0.004-0.343-0.006c0.002,0.354,0.005,0.708,0.007,1.063c0,0.048,0,0.095,0,0.151c0.407,0,0.799,0,1.208,0
                                        c0.002-0.044,0.006-0.091,0.007-0.138c0.001-0.31,0-0.62,0.001-0.93C209.6,118.266,209.604,118.217,209.607,118.169z"/>
                                <path id="XMLID_467_" style="fill:#303642;" d="M213.243,120.583c0.391,0,0.775,0,1.178,0c0.006-0.395,0.001-0.786,0.003-1.184
                                        c-0.4,0-0.788,0-1.176,0C213.222,119.491,213.216,120.42,213.243,120.583z"/>
                                <path id="XMLID_466_" style="fill:#303642;" d="M197.497,103.657c0-1.21,0-2.409,0-3.618c-1.204,0-2.403,0-3.601,0
                                        c-0.025,0.096-0.034,3.43-0.009,3.618C195.085,103.657,196.284,103.657,197.497,103.657z"/>
                                <path id="XMLID_465_" style="fill:#303642;" d="M215.648,103.659c1.207,0,2.405,0,3.611,0c0-1.21,0-2.412,0-3.622
                                        c-1.207,0-2.405,0-3.611,0C215.648,101.247,215.648,102.449,215.648,103.659z"/>
                                <path id="XMLID_464_" style="fill:#303642;" d="M193.883,121.801c0,1.21,0,2.412,0,3.622c1.206,0,2.405,0,3.611,0
                                        c0-1.21,0-2.412,0-3.622C196.288,121.801,195.09,121.801,193.883,121.801z"/>
                        </g>
                </g>
        </g>
</g>
</svg>