<svg version="1.1" id="Template_03" xmlns="http://www.w3.org/2000/svg" xmlns:xlink="http://www.w3.org/1999/xlink" x="0px"
	 y="0px" viewBox="0 0 1050 600" style="enable-background:new 0 0 1050 600;" xml:space="preserve">
<style type="text/css">
	.st0{fill:#FFFFFF;}
	.st1{fill:#1C1C1C;}
	.st2{fill:url(#SVGID_1_);}
	.st3{fill:url(#SVGID_2_);}
	.st4{fill:url(#SVGID_3_);}
	.st5{fill:url(#SVGID_4_);}
	.st6{fill:#2EA4A8;}
	.st7{font-family:'Poppins-Medium';}
	.st8{font-size:20px;}
	.st9{font-family:'Poppins-SemiBold';}
	.st10{font-size:36px;}
	.st11{fill:#565759;}
	.st12{font-size:24px;}
	.st13{font-family:'Poppins-Bold';}
	.st14{font-size:42px;}
</style>
<rect class="st0" width="1050" height="600"/>
<path class="st1" d="M1050,200c-15.8,3.9-42.9,9.8-76.8,13.9C643.9,253.2,360,31.1,171.9,69.8C96.3,85.4,49.3,130.1,49.3,130.1
	C23.4,154.8,8.5,181.4,0,200V0h1050V200z"/>
<linearGradient id="SVGID_1_" gradientUnits="userSpaceOnUse" x1="0" y1="210.9429" x2="280.1001" y2="210.9429">
	<stop  offset="0" style="stop-color:#299D94"/>
	<stop  offset="1" style="stop-color:#34ADC2"/>
</linearGradient>
<path class="st2" d="M19.7,258.8C7.5,288.3,2.4,314.4,0,332V228.9c11.8-29,31.2-62.9,64.6-89.6C152,69.6,280,93.4,280.1,95.4
	c0.1,1.5-69.7-13.3-142,25.5C66.2,159.7,31.5,230.2,19.7,258.8z"/>
<g>
	<rect x="521.8" y="250.3" class="st1" width="0.5" height="299.7"/>
	<g>
		<g>
			<linearGradient id="SVGID_2_" gradientUnits="userSpaceOnUse" x1="440.5" y1="484.7" x2="500.5" y2="484.7">
				<stop  offset="0" style="stop-color:#299D94"/>
				<stop  offset="1" style="stop-color:#34ADC2"/>
			</linearGradient>
			<circle class="st3" cx="470.5" cy="484.7" r="30"/>
			<path class="st0" d="M470.5,468.7c-8.8,0-16,7.2-16,16s7.2,16,16,16s16-7.2,16-16S479.4,468.7,470.5,468.7z M481.6,478.3h-4.7
				c-0.5-2-1.2-3.9-2.2-5.7C477.6,473.6,480.1,475.7,481.6,478.3z M470.5,472c1.3,1.9,2.4,4,3.1,6.3h-6.1
				C468.2,476,469.2,473.9,470.5,472z M458.2,487.9c-0.3-1-0.4-2.1-0.4-3.2s0.2-2.2,0.4-3.2h5.4c-0.1,1.1-0.2,2.1-0.2,3.2
				s0.1,2.1,0.2,3.2H458.2z M459.5,491.1h4.7c0.5,2,1.2,3.9,2.2,5.7C463.5,495.8,461,493.8,459.5,491.1z M464.2,478.3h-4.7
				c1.5-2.7,4-4.7,6.9-5.7C465.4,474.4,464.7,476.3,464.2,478.3z M470.5,497.5c-1.3-1.9-2.4-4-3.1-6.3h6.1
				C472.9,493.4,471.9,495.5,470.5,497.5z M474.3,487.9h-7.5c-0.1-1.1-0.3-2.1-0.3-3.2s0.1-2.2,0.3-3.2h7.5c0.1,1,0.3,2.1,0.3,3.2
				S474.4,486.9,474.3,487.9z M474.7,496.8c1-1.8,1.7-3.7,2.2-5.7h4.7C480.1,493.8,477.6,495.8,474.7,496.8z M477.5,487.9
				c0.1-1.1,0.2-2.1,0.2-3.2s-0.1-2.1-0.2-3.2h5.4c0.3,1,0.4,2.1,0.4,3.2s-0.2,2.2-0.4,3.2H477.5z"/>
		</g>
		<g>
			<linearGradient id="SVGID_3_" gradientUnits="userSpaceOnUse" x1="440.3" y1="405" x2="500.3" y2="405">
				<stop  offset="0" style="stop-color:#299D94"/>
				<stop  offset="1" style="stop-color:#34ADC2"/>
			</linearGradient>
			<circle class="st4" cx="470.3" cy="405" r="30"/>
			<path class="st0" d="M481.7,390.5h-24.4c-1.7,0-3,1.4-3,3v18.3c0,1.7,1.4,3,3,3H471v-3h-13.7v-15.2l12.2,7.6l12.2-7.6v7.6h3
				v-10.7C484.8,391.9,483.4,390.5,481.7,390.5z M469.5,401.2l-12.2-7.6h24.4L469.5,401.2z M480.2,407.3l6.1,6.1l-6.1,6.1v-4.6h-6.1
				v-3h6.1V407.3z"/>
		</g>
		<g>
			<linearGradient id="SVGID_4_" gradientUnits="userSpaceOnUse" x1="440" y1="323" x2="500" y2="323">
				<stop  offset="0" style="stop-color:#299D94"/>
				<stop  offset="1" style="stop-color:#34ADC2"/>
			</linearGradient>
			<circle class="st5" cx="470" cy="323" r="30"/>
			<path class="st0" d="M460.3,310.6c0.1,1.6,0.4,3.1,0.8,4.6l-2.1,2.1c-0.7-2.1-1.2-4.4-1.4-6.7H460.3 M477.8,331.9
				c1.5,0.4,3.1,0.7,4.6,0.8v2.6c-2.3-0.2-4.6-0.6-6.8-1.3L477.8,331.9 M462,307h-6.2c-1,0-1.8,0.8-1.8,1.8
				c0,16.7,13.5,30.2,30.2,30.2c1,0,1.8-0.8,1.8-1.8V331c0-1-0.8-1.8-1.8-1.8c-2.2,0-4.4-0.4-6.3-1c-0.2-0.1-0.4-0.1-0.6-0.1
				c-0.5,0-0.9,0.2-1.3,0.5l-3.9,3.9c-5-2.6-9.2-6.7-11.7-11.7l3.9-3.9c0.5-0.5,0.6-1.2,0.4-1.8c-0.7-2-1-4.1-1-6.3
				C463.8,307.8,463,307,462,307z"/>
		</g>
	</g>
</g>
<text transform="matrix(1 0 0 1 83.3721 336.9244)" class="st6 st7 st8">UserPhone</text>
<text transform="matrix(1 0 0 1 81.3721 214.9587)" class="st1 st9 st10">UserName</text>
<text transform="matrix(1 0 0 1 83.3722 255.4369)" class="st11 st7 st12">Designation</text>
<text transform="matrix(1 0 0 1 83.3722 413.3711)" class="st6 st7 st8">UserEmail</text>
<text transform="matrix(1 0 0 1 83.3724 491.1202)" class="st6 st7 st8">Website</text>
<g>
	
		<image style="overflow:visible;" width="110" height="110" xlink:href="LogoPath"  transform="matrix(1.25 0 0 1.25 708.7 267.9)">
	</image>
	<text transform="matrix(1 0 0 1 710.8174 453.9343)" class="st1 st13 st14">Company</text>
</g>
</svg>
