<svg version="1.1" id="Layer_1" xmlns="http://www.w3.org/2000/svg" xmlns:xlink="http://www.w3.org/1999/xlink" x="0px" y="0px"
	 viewBox="0 0 1050 600" style="enable-background:new 0 0 1050 600;" xml:space="preserve">
<style type="text/css">
	.st0{opacity:0.36;fill:#D2D6D9;enable-background:new    ;}
	.st1{opacity:0.36;fill:#F09819;enable-background:new    ;}
	.st2{opacity:0.36;fill:#EE731B;enable-background:new    ;}
	.st3{fill:#272B37;}
	.st4{fill:#F1881D;}
	.st5{fill:#312F30;}
	.st6{font-family:'Poppins-Medium';}
	.st7{font-size:26px;}
	.st8{fill:#1C1C1C;}
	.st9{font-family:'Poppins-SemiBold';}
	.st10{font-size:42px;}
	.st11{fill:#565759;}
	.st12{font-size:28px;}
	.st13{fill:#FFFFFF;}
	.st14{font-family:'Poppins-Bold';}
	.st15{font-size:48px;}
</style>
<g id="Group_413" transform="translate(1 -104)">
	<path id="Path_186" class="st0" d="M-1,104h368.5c0,0,67.4,65.1,109.2,149.3S535,440.6,535,440.6l0,0
		c-147.5-19.6-256.7,71.9-256.7,71.9H-1V104z"/>
	<path id="Path_185" class="st1" d="M-1,104h359.1c0,0,65.7,71.7,106.5,164.4s56.8,206.2,56.8,206.2l0,0
		c-143.7-21.6-250.2,79.1-250.2,79.1H-1V104z"/>
	<path id="Path_183" class="st2" d="M-1,104h347.4c0,0,63.5,83.7,103,191.8s54.9,240.6,54.9,240.6l0,0
		c-139.1-25.2-242.1,92.3-242.1,92.3H-1V104z"/>
	<path id="Path_184" class="st3" d="M-1,104h335.7c0,0,61.4,95.6,99.5,219.1s53.1,275,53.1,275l0,0
		C353,569.3,253.4,703.6,253.4,703.6H-1V104z"/>
</g>
<g>
	<g>
		<path class="st4" d="M554.2,462.7c-8.8,0-16,7.2-16,16s7.2,16,16,16s16-7.2,16-16S563.1,462.7,554.2,462.7z M565.3,472.3h-4.7
			c-0.5-2-1.2-3.9-2.2-5.7C561.3,467.6,563.8,469.7,565.3,472.3z M554.2,466c1.3,1.9,2.4,4,3.1,6.3h-6.1
			C551.9,470,552.9,467.9,554.2,466z M541.8,481.9c-0.3-1-0.4-2.1-0.4-3.2s0.2-2.2,0.4-3.2h5.4c-0.1,1.1-0.2,2.1-0.2,3.2
			s0.1,2.1,0.2,3.2H541.8z M543.2,485.1h4.7c0.5,2,1.2,3.9,2.2,5.7C547.1,489.8,544.7,487.8,543.2,485.1z M547.9,472.3h-4.7
			c1.5-2.7,4-4.7,6.9-5.7C549.1,468.4,548.4,470.3,547.9,472.3z M554.2,491.5c-1.3-1.9-2.4-4-3.1-6.3h6.1
			C556.6,487.4,555.6,489.5,554.2,491.5z M558,481.9h-7.5c-0.1-1.1-0.3-2.1-0.3-3.2s0.1-2.2,0.3-3.2h7.5c0.1,1,0.3,2.1,0.3,3.2
			C558.2,479.8,558.1,480.9,558,481.9z M558.4,490.8c1-1.8,1.7-3.7,2.2-5.7h4.7C563.8,487.8,561.3,489.8,558.4,490.8z M561.2,481.9
			c0.1-1.1,0.2-2.1,0.2-3.2s-0.1-2.1-0.2-3.2h5.4c0.3,1,0.4,2.1,0.4,3.2s-0.2,2.2-0.4,3.2H561.2z"/>
		<path class="st4" d="M565.4,369.5H541c-1.7,0-3,1.4-3,3v18.3c0,1.7,1.4,3,3,3h13.7v-3H541v-15.2l12.2,7.6l12.2-7.6v7.6h3v-10.7
			C568.5,370.9,567.1,369.5,565.4,369.5z M553.2,380.2l-12.2-7.6h24.4L553.2,380.2z M563.9,386.3l6.1,6.1l-6.1,6.1v-4.6h-6.1v-3h6.1
			V386.3z"/>
		<path class="st4" d="M543,273.6c0.1,1.6,0.4,3.1,0.8,4.6l-2.1,2.1c-0.7-2.1-1.2-4.4-1.4-6.7H543 M560.5,294.9
			c1.5,0.4,3.1,0.7,4.6,0.8v2.6c-2.3-0.2-4.6-0.6-6.8-1.3L560.5,294.9 M544.7,270h-6.2c-1,0-1.8,0.8-1.8,1.8
			c0,16.7,13.5,30.2,30.2,30.2c1,0,1.8-0.8,1.8-1.8V294c0-1-0.8-1.8-1.8-1.8c-2.2,0-4.4-0.4-6.3-1c-0.2-0.1-0.4-0.1-0.6-0.1
			c-0.5,0-0.9,0.2-1.3,0.5l-3.9,3.9c-5-2.6-9.2-6.7-11.7-11.7l3.9-3.9c0.5-0.5,0.6-1.2,0.4-1.8c-0.7-2-1-4.1-1-6.3
			C546.5,270.8,545.7,270,544.7,270z"/>
	</g>
	<text transform="matrix(1 0 0 1 596.9645 294.9192)" class="st5 st6 st7">UserPhone</text>
	<text transform="matrix(1 0 0 1 536.6877 132.307)" class="st8 st9 st10">UserName</text>
	<text transform="matrix(1 0 0 1 536.6875 174.7852)" class="st11 st6 st12">Designation</text>
	<text transform="matrix(1 0 0 1 596.9644 391.3651)" class="st5 st6 st7">UserEmail</text>
	<text transform="matrix(1 0 0 1 596.9645 488.2823)" class="st5 st6 st7">Website</text>
</g>
<g>
	
		<image style="overflow:visible;" width="96" height="96" xlink:href="LogoPath"  transform="matrix(1.5625 0 0 1.5625 131.8 150.3)">
	</image>
	<text transform="matrix(1 0 0 1 110.8174 380.692)" class="st13 st14 st15">Company</text>
</g>
</svg>
